<svg xmlns="http://www.w3.org/2000/svg" viewBox="0 0 64 64" role="img" aria-label="Transterm icon">
  <defs>
    <linearGradient id="tt-g" x1="0" y1="0" x2="1" y2="1">
      <stop offset="0%" stop-color="#d1007b"/>
      <stop offset="100%" stop-color="#b30069"/>
    </linearGradient>
  </defs>
  <rect width="64" height="64" rx="14" fill="#101426"/>
  <path d="M14 32c3.8-7.5 10.8-12 18-12 5.2 0 9.1 1.8 12.2 5.1l-4.1 3.2C38 26 35.8 25 32 25c-5.1 0-9.7 2.7-12.6 7 2.9 4.3 7.5 7 12.6 7 3.8 0 6-1 8.1-3.3l4.1 3.2C41.1 42.2 37.2 44 32 44c-7.2 0-14.2-4.5-18-12Z" fill="url(#tt-g)"/>
  <path d="M50 18v28h-5V32.3L34.4 40l-2.8-4 9.8-7.1H26.2v-5H45V18h5Z" fill="url(#tt-g)"/>
  <circle cx="32" cy="32" r="4.6" fill="#d1007b"/>
</svg>
